<svg xmlns="http://www.w3.org/2000/svg" width="34.095" height="34.095" viewBox="0 0 34.095 34.095">
  <g id="Group_4" data-name="Group 4" transform="translate(-1420 -145)">
    <g id="award" transform="translate(1420 145)">
      <path id="Path_49" data-name="Path 49" d="M366.375,0H363.5l-2.044,2h4.923a1,1,0,0,1,1,1V4.518a8.9,8.9,0,0,1-6.086,8.444l-1.409.469a1,1,0,0,0,.316,1.947,1.026,1.026,0,0,0,.316-.051l1.409-.47a10.9,10.9,0,0,0,7.452-10.339V3a3,3,0,0,0-3-3Zm0,0" transform="translate(-335.276 0)" fill="#515151"/>
      <path id="Path_50" data-name="Path 50" d="M9.492,13.431l-1.409-.468A8.9,8.9,0,0,1,2,4.518V3A1,1,0,0,1,3,2H8.159L5.876,0H3A3,3,0,0,0,0,3V4.518a10.9,10.9,0,0,0,7.452,10.34l1.409.469a1.026,1.026,0,0,0,.316.051,1,1,0,0,0,.316-1.947Zm0,0" transform="translate(0 0)" fill="#515151"/>
      <path id="Path_51" data-name="Path 51" d="M102.437,19.5v1.478a.989.989,0,0,0,1,1,2.992,2.992,0,0,1,3,3v2a.989.989,0,0,1-1,1H93.314a.989.989,0,0,1-1-1v-2a2.992,2.992,0,0,1,3-3,.989.989,0,0,0,1-1V19.5a9.958,9.958,0,0,1-6.872-8.351L88.2,0h22.349l-1.239,11.147a9.958,9.958,0,0,1-6.872,8.351Zm0,0" transform="translate(-82.326 -0.001)" fill="#515151"/>
      <path id="Path_53" data-name="Path 53" d="M190.98,64.094a1.016,1.016,0,0,0-.819-.7l-2.238-.32-1-1.978a1.059,1.059,0,0,0-1.8,0l-1,1.978-2.238.319a.995.995,0,0,0-.539,1.718l1.6,1.538-.38,2.157a1.013,1.013,0,0,0,.4.979.98.98,0,0,0,1.039.08l2.018-1.039,2.018,1.039a.977.977,0,0,0,1.039-.08,1.013,1.013,0,0,0,.4-.979l-.38-2.157,1.6-1.538A1.021,1.021,0,0,0,190.98,64.094Zm0,0" transform="translate(-168.978 -56.563)" fill="#515151"/>
      <path id="Path_54" data-name="Path 54" d="M138.113,391v6.047H120V391a.989.989,0,0,1,1-1h16.115A.989.989,0,0,1,138.113,391Zm0,0" transform="translate(-112.009 -364.029)" fill="#515151"/>
      <path id="Path_56" data-name="Path 56" d="M265.057,391v6.047H256V390h8.058A.989.989,0,0,1,265.057,391Zm0,0" transform="translate(-238.952 -364.029)" fill="#515151"/>
      <path id="Path_57" data-name="Path 57" d="M112.109,483a.989.989,0,0,1-1,1H91a1,1,0,1,1,0-2H111.11A.989.989,0,0,1,112.109,483Zm0,0" transform="translate(-84.007 -449.902)" fill="#515151"/>
      <path id="Path_58" data-name="Path 58" d="M267.054,483a.989.989,0,0,1-1,1H256v-2h10.055A.989.989,0,0,1,267.054,483Zm0,0" transform="translate(-238.952 -449.902)" fill="#515151"/>
    </g>
  </g>
</svg>
