<svg xmlns="http://www.w3.org/2000/svg" width="277.541" height="375.436" viewBox="0 0 277.541 375.436">
  <g id="Group_23" data-name="Group 23" transform="translate(-71.073 -146.374)">
    <path id="Exclusion_6" data-name="Exclusion 6" d="M299.7,381.436H295A135.4,135.4,0,0,1,198.38,340.9a133.141,133.141,0,0,1-15.861-19.564,129.847,129.847,0,0,1-11.874-22.339A127.208,127.208,0,0,1,161.1,248a99.238,99.238,0,0,1,3.289-26.78,89.66,89.66,0,0,1,6.791-18.494,183.421,183.421,0,0,1,11.138-19.534c8.592-13.344,19.1-27.132,30.23-41.73,11.274-14.79,22.931-30.083,33.125-45.692,24.2-33.594,41.754-69.736,48.361-83.342,2.008-4.134,3.114-6.412,3.3-6.412a.021.021,0,0,1,.02.014c0-.021,0-.031.013-.031a42.779,42.779,0,0,1,2.276,4.544c5.889,12.332,23.808,49.859,49.395,85.227,9.946,15,21.159,29.671,32,43.862,22.411,29.329,43.577,57.029,49.28,82.057a121.718,121.718,0,0,1,3.289,26.78,128.049,128.049,0,0,1-2.206,26.281,126.727,126.727,0,0,1-7.281,24.492,128.966,128.966,0,0,1-11.8,22.215,132.309,132.309,0,0,1-15.77,19.452,135.533,135.533,0,0,1-69.242,37.713A136.771,136.771,0,0,1,299.7,381.436Z" transform="translate(-90 140.374)" fill="#cbecfe"/>
    <path id="Intersection_6" data-name="Intersection 6" d="M99.54,335.892a99.907,99.907,0,0,1-71.292-29.912,98.2,98.2,0,0,1-11.7-14.434,95.724,95.724,0,0,1-8.761-16.483q-1.686-4.1-2.971-8.3c11.679,3.406,24.773,4.04,38.044-1.441,41.641-17.2,60.192-56.805,118.722-57.605.468-.006.928-.01,1.39-.01,14.759,0,26.518,3.249,35.847,8.074q.309,1.125.563,2.24a89.875,89.875,0,0,1,2.426,19.76,93.257,93.257,0,0,1-7,37.461,95.169,95.169,0,0,1-8.708,16.391,97.651,97.651,0,0,1-11.635,14.352,100.013,100.013,0,0,1-51.09,27.826,100.881,100.881,0,0,1-20.368,2.076Z" transform="translate(220.853 138.749) rotate(18)" fill="#3c7dc7"/>
    <path id="Intersection_2" data-name="Intersection 2" d="M138.07,381.436A135.4,135.4,0,0,1,41.448,340.9a133.155,133.155,0,0,1-15.862-19.564,129.873,129.873,0,0,1-11.874-22.339,127.487,127.487,0,0,1-7.1-23.455c6.31-15.709,26.373-51.237,78.589-50.5,67,.944,88.229,47.664,135.893,67.946,17.08,7.268,33.9,5.419,48.456.056q-1.1,3.133-2.362,6.2a128.888,128.888,0,0,1-11.8,22.216,132.32,132.32,0,0,1-15.769,19.452,135.532,135.532,0,0,1-69.242,37.713,136.782,136.782,0,0,1-27.6,2.813Z" transform="translate(66.932 140.374)" fill="#68c1f1"/>
    <path id="Intersection_4" data-name="Intersection 4" d="M133.2,381.436A135.4,135.4,0,0,1,36.575,340.9a133.1,133.1,0,0,1-15.862-19.564A129.873,129.873,0,0,1,8.84,298.993q-2.271-5.519-4.019-11.241c15.826,4.615,33.57,5.472,51.555-1.954,56.437-23.306,81.58-76.99,160.906-78.074.634-.009,1.256-.014,1.883-.014,20,0,35.941,4.4,48.585,10.943q.418,1.525.763,3.036a121.746,121.746,0,0,1,3.29,26.78,128.1,128.1,0,0,1-2.206,26.281,126.738,126.738,0,0,1-7.281,24.492,129.014,129.014,0,0,1-11.8,22.216,132.268,132.268,0,0,1-15.77,19.452A135.535,135.535,0,0,1,165.5,378.623a136.782,136.782,0,0,1-27.6,2.813Z" transform="translate(71.805 140.374)" fill="#3c96c7" opacity="0.25"/>
  </g>
</svg>
