<svg xmlns="http://www.w3.org/2000/svg" width="35.318" height="34.443" viewBox="0 0 35.318 34.443">
  <g id="github-logo" transform="translate(0 -0.438)">
    <path id="Path_76" data-name="Path 76" d="M23.71,34.689a3.235,3.235,0,0,1-.522.168.859.859,0,0,1-1.116-.922c-.009-1.287-.009-2.572.012-3.859.022-1.48-.012-2.941-1.139-4.162.67-.12,1.266-.2,1.849-.338,3.862-.887,5.868-3.323,6.124-7.366a7.458,7.458,0,0,0-1.6-5.567.677.677,0,0,1-.057-.539,6.785,6.785,0,0,0-.166-3.959.506.506,0,0,0-.6-.407A6.15,6.15,0,0,0,23.4,8.811a3.228,3.228,0,0,1-2.754.482,15.426,15.426,0,0,0-6.94.165,1.272,1.272,0,0,1-.851-.161A11.043,11.043,0,0,0,9.443,7.8c-.965-.188-1.049-.14-1.305.793a6.524,6.524,0,0,0-.025,3.536A.716.716,0,0,1,8,12.7c-2.557,2.853-1.631,8.244.092,10.309a8.273,8.273,0,0,0,5.1,2.7c.345.064.688.113,1.033.173-.3.77-.562,1.5-.863,2.212a.729.729,0,0,1-.4.312,3.6,3.6,0,0,1-4.713-1.56A3.671,3.671,0,0,0,5.754,25.01a.35.35,0,0,0-.106-.021c-.3.08-.607.164-.911.246.171.238.292.558.521.7a5.094,5.094,0,0,1,2,2.5A3.846,3.846,0,0,0,10.8,30.893c.8.065,1.606.01,2.481.01,0,1,.036,2.133-.015,3.265-.026.61-.639.854-1.373.6a15.965,15.965,0,0,1-5.311-2.963C.956,26.96-1.214,20.83.657,13.655,2.522,6.5,7.383,2.116,14.651.739a17.637,17.637,0,0,1,9.059,33.95ZM14.229,25.85l-.016.038.055.009C14.282,25.9,14.294,25.923,14.229,25.85Zm-4.55,3.181a2.263,2.263,0,0,0,.477.273c.062.02.177-.121.38-.271a3.439,3.439,0,0,0-.623-.225C9.845,28.8,9.757,28.953,9.679,29.031Zm1.433.246a.444.444,0,0,0,.355.234c.119,0,.235-.16.354-.25-.108-.1-.216-.195-.548-.494C11.2,28.975,11.082,29.143,11.112,29.277Zm1.758-.423a1.408,1.408,0,0,0-.408.266c.079.1.158.193.285.35.175-.16.294-.271.414-.379C13.061,29,12.944,28.836,12.87,28.854Zm-4.358-.593a3.945,3.945,0,0,0,.381.508c.115-.188.24-.332.218-.361a1.932,1.932,0,0,0-.4-.367C8.7,28.033,8.495,28.227,8.512,28.261Z" fill="#515151"/>
  </g>
</svg>
