<svg xmlns="http://www.w3.org/2000/svg" width="34.443" height="34.443" viewBox="0 0 34.443 34.443">
  <path id="linkedin" d="M17.221,0A17.221,17.221,0,1,0,34.443,17.221,17.223,17.223,0,0,0,17.221,0Zm-5,26.034H8.023V13.416h4.194Zm-2.1-14.341h-.027a2.186,2.186,0,1,1,.055-4.36,2.187,2.187,0,1,1-.028,4.36Zm17.22,14.341H23.147V19.284c0-1.7-.607-2.854-2.125-2.854a2.3,2.3,0,0,0-2.152,1.534,2.872,2.872,0,0,0-.138,1.024v7.047H14.538s.055-11.435,0-12.618h4.194V15.2a4.164,4.164,0,0,1,3.78-2.083c2.759,0,4.829,1.8,4.829,5.679Zm0,0" fill="#515151"/>
</svg>
