<svg xmlns="http://www.w3.org/2000/svg" width="15.54" height="27.442" viewBox="0 0 15.54 27.442">
  <g id="phone" transform="translate(-5.951)">
    <path id="Path_66" data-name="Path 66" d="M19.494,0H7.948a2,2,0,0,0-2,2V25.445a2,2,0,0,0,2,2H19.494a2,2,0,0,0,2-2V2A2,2,0,0,0,19.494,0ZM10.872,1.214h5.7c.144,0,.261.215.261.481s-.117.482-.261.482h-5.7c-.145,0-.26-.216-.26-.482S10.727,1.214,10.872,1.214Zm2.85,24.255a1.275,1.275,0,1,1,1.273-1.276A1.277,1.277,0,0,1,13.722,25.469ZM20,21.1H7.448V3.373H19.995V21.1Z" fill="#515151"/>
  </g>
</svg>
