<svg xmlns="http://www.w3.org/2000/svg" width="30.958" height="41.281" viewBox="0 0 30.958 41.281">
  <g id="Group_22" data-name="Group 22" transform="translate(-303.035 -301.326)">
    <g id="glass-of-water" transform="translate(303.536 301.826)">
      <g id="Group_2" data-name="Group 2" transform="translate(0 0)">
        <path id="Path_25" data-name="Path 25" d="M47.578,0a1.21,1.21,0,0,0-1.163,1.337l1.918,14.357h.814c.233,0,.465.058.7.058a8.261,8.261,0,0,1,2.093.581,3.554,3.554,0,0,1,.814.407,5.319,5.319,0,0,1,.814.407,8.975,8.975,0,0,0,3.546.639,10.2,10.2,0,0,0,2.034-.174,5.5,5.5,0,0,0,1.046-.291l.872-.349a5.313,5.313,0,0,0,.814-.407l.872-.349a4.5,4.5,0,0,1,1.046-.291,10.2,10.2,0,0,1,2.034-.174c4.243,0,4.359,1.976,8.312,2.093L76.35,1.395A1.177,1.177,0,0,0,75.188.058H47.578Z" transform="translate(-46.411)" fill="none" stroke="#e3f6ff" stroke-width="1"/>
        <path id="Path_26" data-name="Path 26" d="M79.154,140.772a5.5,5.5,0,0,0-1.046.291l-.872.349a5.319,5.319,0,0,0-.814.407l-.872.349a4.5,4.5,0,0,1-1.046.291,10.2,10.2,0,0,1-2.034.174,8.974,8.974,0,0,1-3.546-.639,3.554,3.554,0,0,1-.814-.407,5.319,5.319,0,0,1-.814-.407A8.253,8.253,0,0,0,65.2,140.6c-.233,0-.465-.058-.7-.058h-.814l3.139,23.134a1.755,1.755,0,0,0,1.744,1.511H84.967a1.755,1.755,0,0,0,1.744-1.511l2.848-20.983c-3.953-.116-4.127-2.092-8.312-2.092A10.406,10.406,0,0,0,79.154,140.772Z" transform="translate(-61.77 -124.904)" fill="#dcf3ff" stroke="#e1f4ff" stroke-width="1"/>
      </g>
    </g>
    <line id="Line_3" data-name="Line 3" x2="15.918" transform="translate(310.558 330.348)" fill="none" stroke="#3c84c7" stroke-width="2"/>
  </g>
</svg>

