<svg xmlns="http://www.w3.org/2000/svg" width="35.244" height="34.886" viewBox="0 0 35.244 34.886">
  <g id="settings-gears" transform="translate(-0.001 -4.737)">
    <path id="Path_39" data-name="Path 39" d="M2.315,17.471a8.581,8.581,0,0,0,.768,1.822l-.926,1.168a.959.959,0,0,0,.072,1.27l1.6,1.6a.955.955,0,0,0,1.27.072l1.161-.919a8.433,8.433,0,0,0,1.894.8l.174,1.493a.956.956,0,0,0,.949.847h2.257a.956.956,0,0,0,.949-.847l.166-1.441a8.53,8.53,0,0,0,2.03-.82L15.8,23.4a.959.959,0,0,0,1.27-.072l1.6-1.6a.955.955,0,0,0,.072-1.27l-.873-1.108a8.332,8.332,0,0,0,.836-2l1.346-.155a.956.956,0,0,0,.847-.949V14a.956.956,0,0,0-.847-.949L18.716,12.9a8.386,8.386,0,0,0-.8-1.974l.817-1.032a.959.959,0,0,0-.072-1.27L17.068,7.028a.955.955,0,0,0-1.27-.072l-1,.794a8.415,8.415,0,0,0-2.076-.87l-.151-1.3a.956.956,0,0,0-.949-.847H9.362a.956.956,0,0,0-.949.847l-.151,1.3a8.379,8.379,0,0,0-2.129.9l-1.04-.824a.959.959,0,0,0-1.27.072l-1.6,1.6a.955.955,0,0,0-.072,1.27l.87,1.1a8.225,8.225,0,0,0-.786,1.993l-1.391.159A.956.956,0,0,0,0,14.095v2.257a.956.956,0,0,0,.847.949Zm8.178-6.106A3.732,3.732,0,1,1,6.761,15.1,3.737,3.737,0,0,1,10.493,11.365Z" fill="#515151"/>
    <path id="Path_40" data-name="Path 40" d="M492.658,290.348l-1.191-1.006a.942.942,0,0,0-1.255.034l-.658.616a6.8,6.8,0,0,0-1.754-.567l-.185-.907a.951.951,0,0,0-1.006-.756l-1.554.132a.947.947,0,0,0-.866.911l-.03.923a6.818,6.818,0,0,0-1.675.881l-.786-.522a.945.945,0,0,0-1.244.178l-1.006,1.2a.942.942,0,0,0,.034,1.255l.688.733a7.048,7.048,0,0,0-.507,1.679l-.983.2a.951.951,0,0,0-.756,1.006l.132,1.554a.947.947,0,0,0,.911.866l1.062.034a6.944,6.944,0,0,0,.752,1.437l-.594.9a.945.945,0,0,0,.178,1.244l1.191,1.006a.942.942,0,0,0,1.255-.034l.779-.73a6.827,6.827,0,0,0,1.6.522l.216,1.066a.951.951,0,0,0,1.006.756l1.554-.132a.947.947,0,0,0,.866-.911l.034-1.044a6.99,6.99,0,0,0,1.6-.809l.858.567a.945.945,0,0,0,1.244-.178l1.006-1.191a.942.942,0,0,0-.034-1.255l-.692-.733a6.809,6.809,0,0,0,.544-1.686l.945-.193a.951.951,0,0,0,.756-1.006l-.132-1.554a.947.947,0,0,0-.911-.866l-.949-.03a6.866,6.866,0,0,0-.79-1.558l.518-.779A.94.94,0,0,0,492.658,290.348Zm-5.856,8.983a3.054,3.054,0,1,1,2.786-3.3A3.055,3.055,0,0,1,486.8,299.331Z" transform="translate(-459.85 -272.321)" fill="#515151"/>
    <path id="Path_41" data-name="Path 41" d="M183.155,564.243a.945.945,0,0,0-.847.93l-.011.957a.942.942,0,0,0,.824.949l.7.091a5.456,5.456,0,0,0,.5,1.221l-.454.56a.943.943,0,0,0,.057,1.255l.669.684a.944.944,0,0,0,1.255.087l.563-.435a5.526,5.526,0,0,0,1.255.548l.076.726a.945.945,0,0,0,.93.847l.957.011a.942.942,0,0,0,.949-.824l.087-.688a5.68,5.68,0,0,0,1.361-.529l.529.427a.943.943,0,0,0,1.255-.057l.684-.669a.944.944,0,0,0,.087-1.255l-.4-.526a5.484,5.484,0,0,0,.575-1.323l.628-.064a.945.945,0,0,0,.847-.93l.011-.957a.942.942,0,0,0-.824-.949l-.613-.079a5.7,5.7,0,0,0-.518-1.323l.382-.469a.943.943,0,0,0-.057-1.255l-.669-.684a.944.944,0,0,0-1.255-.087l-.458.352a5.562,5.562,0,0,0-1.376-.6l-.061-.594a.944.944,0,0,0-.93-.847l-.957-.011a.942.942,0,0,0-.949.824l-.076.59a5.711,5.711,0,0,0-1.425.582l-.473-.386a.943.943,0,0,0-1.255.057l-.688.673a.944.944,0,0,0-.087,1.255l.4.522a5.534,5.534,0,0,0-.541,1.323Zm6.174-1.081a2.488,2.488,0,1,1-2.518,2.458A2.49,2.49,0,0,1,189.329,563.161Z" transform="translate(-175.403 -533.051)" fill="#515151"/>
  </g>
</svg>
