<svg xmlns="http://www.w3.org/2000/svg" width="34.703" height="34.703" viewBox="0 0 34.703 34.703"><defs><style>.a{fill:#515151;}</style></defs><g transform="translate(0 0)"><path class="a" d="M34.05,16.267a3.035,3.035,0,0,0,2.111-.858l3.01,1.5a2.987,2.987,0,0,0-.037.37,3.05,3.05,0,1,0,6.1,0,3.013,3.013,0,0,0-.306-1.307l4.083-4.083a3.013,3.013,0,0,0,1.307.306,3.054,3.054,0,0,0,3.05-3.05,3,3,0,0,0-.152-.9l3.547-2.66A3.048,3.048,0,1,0,55.4,3.05a3,3,0,0,0,.152.9l-3.547,2.66a3.037,3.037,0,0,0-4.433,3.844L43.49,14.54a3,3,0,0,0-3.418.552l-3.01-1.5a2.987,2.987,0,0,0,.037-.37,3.05,3.05,0,1,0-3.05,3.05Zm0,0" transform="translate(-28.899)"/><path class="a" d="M33.687,172.5H32.6V151.017A1.016,1.016,0,0,0,31.585,150H27.519a1.016,1.016,0,0,0-1.017,1.017V172.5H24.469V157.117a1.016,1.016,0,0,0-1.017-1.017H19.385a1.016,1.016,0,0,0-1.017,1.017V172.5H16.335V165.25a1.016,1.016,0,0,0-1.017-1.017H11.251a1.016,1.016,0,0,0-1.017,1.017V172.5H8.2V161.184a1.016,1.016,0,0,0-1.017-1.017H3.118A1.016,1.016,0,0,0,2.1,161.184V172.5H1.017a1.017,1.017,0,1,0,0,2.033h32.67a1.017,1.017,0,1,0,0-2.033Zm0,0" transform="translate(0 -139.833)"/></g></svg>