<svg xmlns="http://www.w3.org/2000/svg" width="21.54" height="25.848" viewBox="0 0 21.54 25.848">
  <g id="internet" transform="translate(-42.666)">
    <g id="Group_9" data-name="Group 9" transform="translate(42.666)">
      <g id="Group_8" data-name="Group 8">
        <path id="Path_67" data-name="Path 67" d="M82.847,317.411H75.308v-.539a.538.538,0,0,0-.539-.539h-.539v-1.212c1.071-.491,2.084-2.392,2.679-5.136a.537.537,0,0,0-.526-.653H71a.537.537,0,0,0-.526.653c.595,2.744,1.608,4.645,2.679,5.136v1.212h-.539a.538.538,0,0,0-.539.539v.539H64.539a.538.538,0,1,0,0,1.077h7.539v.539a.538.538,0,0,0,.539.539H74.77a.538.538,0,0,0,.539-.539v-.539h7.539a.539.539,0,1,0,0-1.077Z" transform="translate(-62.923 -293.717)" fill="#515151"/>
        <path id="Path_68" data-name="Path 68" d="M315.177,314.44a.539.539,0,0,0,.4.182.525.525,0,0,0,.185-.033,10.819,10.819,0,0,0,5.441-4.433.539.539,0,0,0-.458-.823h-3.8a.539.539,0,0,0-.529.436,15.393,15.393,0,0,1-1.317,4.068A.539.539,0,0,0,315.177,314.44Z" transform="translate(-301.292 -293.717)" fill="#515151"/>
        <path id="Path_69" data-name="Path 69" d="M192.144,5.723a.541.541,0,0,0,.42.2h5.383a.537.537,0,0,0,.526-.653C197.778,2.069,196.515,0,195.255,0s-2.523,2.069-3.217,5.271A.538.538,0,0,0,192.144,5.723Z" transform="translate(-184.485)" fill="#515151"/>
        <path id="Path_70" data-name="Path 70" d="M188.152,146.205a.539.539,0,0,0,.535-.476,29.392,29.392,0,0,0,0-6.587.539.539,0,0,0-.535-.476h-6.1a.539.539,0,0,0-.535.476,29.389,29.389,0,0,0,0,6.587.539.539,0,0,0,.535.476Z" transform="translate(-174.332 -131.666)" fill="#515151"/>
        <path id="Path_71" data-name="Path 71" d="M48.627,146.026a.538.538,0,0,0,.135-.418,29.271,29.271,0,0,1,0-6.346.539.539,0,0,0-.535-.6H43.734a.54.54,0,0,0-.511.368,10.675,10.675,0,0,0,0,6.8.54.54,0,0,0,.511.368h4.493A.54.54,0,0,0,48.627,146.026Z" transform="translate(-42.666 -131.666)" fill="#515151"/>
        <path id="Path_72" data-name="Path 72" d="M73.788,17.859h3.8a.539.539,0,0,0,.529-.436,15.393,15.393,0,0,1,1.317-4.068.538.538,0,0,0-.664-.752,10.819,10.819,0,0,0-5.441,4.433.539.539,0,0,0,.458.822Z" transform="translate(-71.705 -11.935)" fill="#515151"/>
        <path id="Path_73" data-name="Path 73" d="M354.062,139.034a.54.54,0,0,0-.511-.368h-4.493a.539.539,0,0,0-.535.6,29.269,29.269,0,0,1,0,6.346.539.539,0,0,0,.535.6h4.493a.54.54,0,0,0,.511-.368,10.675,10.675,0,0,0,0-6.8Z" transform="translate(-333.078 -131.666)" fill="#515151"/>
        <path id="Path_74" data-name="Path 74" d="M77.589,309.333h-3.8a.539.539,0,0,0-.458.823,10.82,10.82,0,0,0,5.441,4.433.525.525,0,0,0,.185.033.538.538,0,0,0,.479-.785,15.391,15.391,0,0,1-1.317-4.068A.539.539,0,0,0,77.589,309.333Z" transform="translate(-71.705 -293.717)" fill="#515151"/>
        <path id="Path_75" data-name="Path 75" d="M316.42,17.422a.539.539,0,0,0,.529.436h3.8a.539.539,0,0,0,.458-.822,10.819,10.819,0,0,0-5.441-4.433.538.538,0,0,0-.664.752A15.4,15.4,0,0,1,316.42,17.422Z" transform="translate(-301.293 -11.934)" fill="#515151"/>
      </g>
    </g>
  </g>
</svg>
