<svg xmlns="http://www.w3.org/2000/svg" width="37.427" height="48.437" viewBox="0 0 37.427 48.437">
  <g id="Group_24" data-name="Group 24" transform="translate(-24.573 -34.874)">
    <path id="Exclusion_9" data-name="Exclusion 9" d="M178.589,53.437h-.594a17,17,0,0,1-6.725-1.376,17.123,17.123,0,0,1-5.484-3.746,16.5,16.5,0,0,1-3.5-5.294,16.028,16.028,0,0,1-1.206-6.443,12.546,12.546,0,0,1,.415-3.384c.706-3.021,3.319-6.449,6.085-10.077,1.425-1.869,2.9-3.8,4.185-5.773a72.4,72.4,0,0,0,6.111-10.531A6.221,6.221,0,0,1,178.289,6l0,0s0,0,0,0a5.408,5.408,0,0,1,.288.574,70.739,70.739,0,0,0,6.241,10.768c1.257,1.895,2.674,3.749,4.044,5.542,2.832,3.706,5.506,7.206,6.227,10.368a15.384,15.384,0,0,1,.416,3.384,15.972,15.972,0,0,1-1.2,6.415,16.389,16.389,0,0,1-3.484,5.265,17.136,17.136,0,0,1-12.237,5.12Z" transform="translate(-136 29.373)" fill="#cbecfe" stroke="#707070" stroke-width="1"/>
    <text id="H_" data-name="H " transform="translate(32 75)" fill="#3c84c7" font-size="30" font-family="SegoeUI, Segoe UI"><tspan x="0" y="0">H </tspan></text>
  </g>
</svg>
