<svg id="Group_17" data-name="Group 17" xmlns="http://www.w3.org/2000/svg" width="141.527" height="47.626" viewBox="0 0 141.527 47.626">
  <g id="Group_16" data-name="Group 16">
    <g id="Group_14" data-name="Group 14" transform="translate(0 0)">
      <path id="Exclusion_9" data-name="Exclusion 9" d="M17.516,47.437h-.594A17,17,0,0,1,10.2,46.061a17.123,17.123,0,0,1-5.484-3.746,16.5,16.5,0,0,1-3.5-5.294A16.028,16.028,0,0,1,0,30.577a12.546,12.546,0,0,1,.415-3.384c.706-3.021,3.319-6.449,6.085-10.077,1.425-1.869,2.9-3.8,4.185-5.773A72.4,72.4,0,0,0,16.8.812,6.221,6.221,0,0,1,17.216,0l0,0s0,0,0,0a5.408,5.408,0,0,1,.288.574,70.739,70.739,0,0,0,6.241,10.768c1.257,1.895,2.674,3.749,4.044,5.542,2.832,3.706,5.506,7.206,6.227,10.368a15.384,15.384,0,0,1,.416,3.384,15.972,15.972,0,0,1-1.2,6.415,16.389,16.389,0,0,1-3.484,5.265,17.136,17.136,0,0,1-12.237,5.12Z" transform="translate(0)" fill="#cbecfe"/>
      <text id="H_" data-name="H " transform="translate(6.927 39.626)" fill="#3c84c7" font-size="30" font-family="SegoeUI-Semilight, Segoe UI" font-weight="300"><tspan x="0" y="0">H </tspan></text>
      <text id="YDRAPP" transform="translate(34.527 39.626)" fill="#cbecfe" font-size="30" font-family="SegoeUI-Semilight, Segoe UI" font-weight="300"><tspan x="0" y="0">YDRAPP</tspan></text>
    </g>
  </g>
</svg>

