<svg xmlns="http://www.w3.org/2000/svg" width="35" height="35.869" viewBox="0 0 35 35.869">
  <g id="ruler" transform="translate(0.001 0.001)">
    <path id="Path_78" data-name="Path 78" d="M34.4,6.524,28.632.614a2.018,2.018,0,0,0-2.9,0L17.677,8.868h0l-6.014,6.164h0L2.641,24.278h0L.6,26.37a2.142,2.142,0,0,0,0,2.973l5.767,5.911a2.019,2.019,0,0,0,2.9,0l3.115-3.192a.713.713,0,0,0,0-.991.672.672,0,0,0-.967,0L8.3,34.263a.672.672,0,0,1-.967,0L1.566,28.352a.714.714,0,0,1,0-.991l1.558-1.6,2.267,2.323a.672.672,0,0,0,.967,0,.713.713,0,0,0,0-.991L4.091,24.773l2.04-2.091.8.82a.672.672,0,0,0,.967,0,.714.714,0,0,0,0-.991l-.8-.82L9.138,19.6l2.267,2.323a.672.672,0,0,0,.967,0,.713.713,0,0,0,0-.991L10.105,18.61l2.04-2.091.8.82a.672.672,0,0,0,.967,0,.713.713,0,0,0,0-.991l-.8-.82,2.04-2.091,2.266,2.323a.672.672,0,0,0,.967,0,.713.713,0,0,0,0-.991L16.12,12.446l2.04-2.091.8.82a.672.672,0,0,0,.967,0,.713.713,0,0,0,0-.991l-.8-.82,2.04-2.091L23.434,9.6a.672.672,0,0,0,.967,0,.713.713,0,0,0,0-.991L22.134,6.282l2.04-2.091.8.82a.672.672,0,0,0,.967,0,.714.714,0,0,0,0-.991l-.8-.82L26.7,1.6a.673.673,0,0,1,.967,0l5.767,5.91a.714.714,0,0,1,0,.991l-18.15,18.6a.713.713,0,0,0,0,.991.672.672,0,0,0,.967,0L34.4,9.5a2.142,2.142,0,0,0,0-2.973Zm0,0" transform="translate(0)" fill="#515151"/>
    <path id="Path_79" data-name="Path 79" d="M193.1,412.359a.682.682,0,1,0,.482.2A.687.687,0,0,0,193.1,412.359Zm0,0" transform="translate(-179.267 -383.284)" fill="#515151"/>
  </g>
</svg>
